<svg width="571" height="270" viewBox="0 0 571 270" fill="none" xmlns="http://www.w3.org/2000/svg">
<path fill-rule="evenodd" clip-rule="evenodd" d="M84 0L-2.35773e-06 72L2.60316 75.037L86.6032 3.03703L84 0ZM89.7617 211.949C91.5456 213.837 93.9544 214.781 96.9883 214.781L106.852 207.164V204.977C106.852 201.878 105.973 199.566 104.215 198.043C102.496 196.559 100.081 195.816 96.9688 195.816C95.5495 195.816 94.4492 195.38 93.668 194.508C93.082 193.857 92.7891 192.822 92.7891 191.402C92.7891 189.931 93.1732 188.798 93.9414 188.004C94.7096 187.21 95.7253 186.812 96.9883 186.812C98.1211 186.812 99.0977 187.171 99.918 187.887C100.764 188.629 101.188 189.801 101.188 191.402V193.16H101.383L105.094 191.402C105.094 188.85 104.286 186.917 102.672 185.602C101.344 184.521 99.4492 183.896 96.9883 183.727L88.8828 189.977V191.852C88.8828 194.065 89.5339 195.777 90.8359 196.988C92.5156 198.551 94.5599 199.332 96.9688 199.332C99.1172 199.332 100.725 199.944 101.793 201.168C102.561 202.053 102.945 203.336 102.945 205.016C102.945 206.76 102.477 208.173 101.539 209.254C100.367 210.595 98.8503 211.266 96.9883 211.266C95.0872 211.266 93.5703 210.595 92.4375 209.254C91.5 208.147 91.0312 206.734 91.0312 205.016V203.258H90.8359L87.125 205.016C87.125 207.776 88.0039 210.087 89.7617 211.949ZM133.883 193.492V214.781H134.078L137.789 213.023V191.734H137.594L133.883 193.492ZM137.789 188.18V183.727H137.594L133.883 185.484V189.938H134.078L137.789 188.18ZM164.625 198.004V214.781H164.82L168.531 213.023V199.41C168.531 197.9 168.915 196.767 169.684 196.012C170.491 195.217 171.507 194.82 172.73 194.82C173.837 194.82 174.814 195.178 175.66 195.895C176.507 196.611 176.93 197.783 176.93 199.41V214.781H177.125L180.836 213.023V199.41C180.836 196.858 180.029 194.924 178.414 193.609C177.086 192.529 175.191 191.904 172.73 191.734L164.625 198.004ZM209.117 212.906C210.445 213.987 212.34 214.612 214.801 214.781L222.906 208.512V205.348H222.711L219 207.105C219 208.577 218.616 209.71 217.848 210.504C217.092 211.285 216.077 211.682 214.801 211.695C213.655 211.695 212.678 211.337 211.871 210.621C211.025 209.853 210.602 208.681 210.602 207.105V199.41C210.602 197.939 210.986 196.806 211.754 196.012C212.509 195.23 213.525 194.833 214.801 194.82C215.947 194.82 216.923 195.178 217.73 195.895C218.577 196.663 219 197.835 219 199.41V201.168H219.195L222.906 199.41C222.906 196.858 222.099 194.924 220.484 193.609C219.156 192.529 217.262 191.904 214.801 191.734L206.695 198.004V207.105C206.695 209.645 207.503 211.578 209.117 212.906ZM251.188 212.906C252.516 213.987 254.41 214.612 256.871 214.781L264.977 208.512V205.348H264.781L261.07 207.105C261.07 208.707 260.686 209.84 259.918 210.504C258.993 211.298 257.965 211.695 256.832 211.695C255.751 211.695 254.788 211.337 253.941 210.621C253.525 210.27 253.199 209.768 252.965 209.117L264.977 199.41C264.977 196.858 264.169 194.924 262.555 193.609C261.227 192.529 259.332 191.904 256.871 191.734L248.766 198.004V207.105C248.766 209.645 249.573 211.578 251.188 212.906ZM261.07 199.43L252.672 206.246V199.41C252.672 197.939 253.056 196.806 253.824 196.012C254.592 195.217 255.608 194.82 256.871 194.82C257.965 194.82 258.935 195.178 259.781 195.895C260.641 196.611 261.07 197.789 261.07 199.43ZM326.461 213.805V214H345.328L346.441 211.656V211.461H330.855L341.051 202.691C344.632 199.762 346.422 196.559 346.422 193.082C346.422 190.608 345.543 188.434 343.785 186.559C342.001 184.671 339.592 183.727 336.559 183.727L326.695 191.344C326.695 193.935 327.092 195.934 327.887 197.34H328.082L331.363 195.758C330.855 194.898 330.602 194.033 330.602 193.16C330.602 191.598 331.07 190.296 332.008 189.254C333.219 187.913 334.736 187.242 336.559 187.242C338.486 187.242 340.003 187.913 341.109 189.254C342.073 190.426 342.555 191.832 342.555 193.473C342.555 195.751 341.018 198.362 337.945 201.305L327.594 211.461L326.461 213.805ZM387.906 209.254C386.734 210.595 385.217 211.266 383.355 211.266C381.454 211.266 379.938 210.595 378.805 209.254C377.867 208.147 377.398 206.734 377.398 205.016V193.492C377.398 191.747 377.867 190.335 378.805 189.254C379.951 187.913 381.467 187.242 383.355 187.242C385.23 187.242 386.747 187.913 387.906 189.254C388.844 190.335 389.312 191.747 389.312 193.492V205.016C389.312 206.76 388.844 208.173 387.906 209.254ZM376.129 211.949C377.978 213.837 380.387 214.781 383.355 214.781L393.219 207.164V193.492C393.219 190.667 392.34 188.355 390.582 186.559C388.733 184.671 386.324 183.727 383.355 183.727L373.492 191.344V205.016C373.492 207.841 374.371 210.152 376.129 211.949ZM422.281 187.789V214.781H422.477L426.188 213.023V183.727H425.992L417.516 187.77V190.016L422.281 187.789ZM465.484 203.805V214.781H465.68L469.391 213.023V203.805H471.207L472.32 201.461V201.266H469.391V183.727H469.195L465.484 185.484L452.281 201.266L451.168 203.609V203.805H465.484ZM465.484 188.473V201.266H455.641L465.484 188.473ZM335.635 270H225V266H335.635V270ZM487 0L571 72L568.397 75.037L484.397 3.03703L487 0Z" fill="#949985"/>
</svg>
