<svg width="567" height="414" viewBox="0 0 567 414" fill="none" xmlns="http://www.w3.org/2000/svg">
<path fill-rule="evenodd" clip-rule="evenodd" d="M109.505 18.4182L96.8792 1.91153L99.262 0.0888672L111.888 16.5955L109.505 18.4182ZM426.262 18.4182L438.888 1.91153L436.505 0.0888672L423.879 16.5955L426.262 18.4182ZM410.238 41.418L422.864 24.9114L420.482 23.0887L407.855 39.5954L410.238 41.418ZM391.738 65.4176L404.365 48.9109L401.982 47.0883L389.356 63.5949L391.738 65.4176ZM112.903 24.9114L125.529 41.418L127.912 39.5954L115.286 23.0887L112.903 24.9114ZM131.403 48.9109L144.029 65.4176L146.412 63.5949L133.786 47.0883L131.403 48.9109ZM412.301 257.043L563.017 300.269L566.178 299.758L415.462 256.532L412.301 257.043ZM150.915 178.482L0.199219 135.256L3.36027 134.745L154.076 177.971L150.915 178.482ZM412.301 177.971L563.017 134.745L566.178 135.256L415.462 178.482L412.301 177.971ZM150.915 256.532L0.199219 299.758L3.36027 300.269L154.076 257.043L150.915 256.532ZM410.864 388.595L398.238 372.088L395.855 373.911L408.482 390.418L410.864 388.595ZM392.365 364.595L379.738 348.089L377.356 349.911L389.982 366.418L392.365 364.595ZM414.262 395.088L426.888 411.595L424.505 413.417L411.879 396.911L414.262 395.088ZM100.903 388.595L113.529 372.088L115.912 373.911L103.286 390.418L100.903 388.595ZM119.403 364.595L132.029 348.089L134.412 349.911L121.786 366.418L119.403 364.595ZM97.5053 395.088L84.8792 411.595L87.262 413.417L99.8882 396.911L97.5053 395.088Z" fill="#FA0235"/>
</svg>
