<svg width="1285" height="109" viewBox="0 0 1285 109" fill="none" xmlns="http://www.w3.org/2000/svg">
<path fill-rule="evenodd" clip-rule="evenodd" d="M20.3597 58.456C20.3597 75.0246 33.7912 88.456 50.3597 88.4561L92.4323 88.456C97.9552 88.456 102.432 92.9332 102.432 98.456C102.432 103.979 97.9552 108.456 92.4323 108.456H50.3597C22.7455 108.456 0.359734 86.0702 0.359739 58.456L0.359752 10.6063C0.359752 5.08349 4.8369 0.606341 10.3598 0.60634C15.8826 0.606342 20.3597 5.0835 20.3597 10.6063L20.3597 58.456ZM1264.07 58.456C1264.07 75.0246 1250.64 88.456 1234.07 88.4561L1192 88.456C1186.47 88.456 1182 92.9332 1182 98.456C1182 103.979 1186.47 108.456 1192 108.456H1234.07C1261.68 108.456 1284.07 86.0702 1284.07 58.456L1284.07 10.6063C1284.07 5.08349 1279.59 0.606341 1274.07 0.60634C1268.55 0.606342 1264.07 5.0835 1264.07 10.6063L1264.07 58.456Z" fill="#426B1F"/>
</svg>
