<svg width="464" height="506" viewBox="0 0 464 506" fill="none" xmlns="http://www.w3.org/2000/svg">
<path fill-rule="evenodd" clip-rule="evenodd" d="M313 27C319.627 27 325 21.6274 325 15C325 8.37258 319.627 3 313 3C306.373 3 301 8.37258 301 15C301 21.6274 306.373 27 313 27ZM313 30C321.284 30 328 23.2843 328 15C328 6.71573 321.284 0 313 0C304.716 0 298 6.71573 298 15C298 23.2843 304.716 30 313 30ZM331.503 113.004L310.137 137.836L307.863 135.879L329.229 111.047L346.003 91.5518C346.859 90.5565 347.674 89.5279 348.445 88.4687L350.994 84.5914C351.839 83.16 352.612 81.6845 353.308 80.1704L358.61 68.6319C360.429 64.6741 361.706 60.4893 362.407 56.1905L364.324 44.443L367.285 44.9261L365.368 56.6735C364.656 61.0379 363.385 65.2916 361.587 69.3298C363.479 67.6122 365.798 66.3975 368.333 65.8326C371.121 65.2115 374.028 65.408 376.706 66.3985L381.344 68.1136L380.303 70.9274L375.666 69.2123C373.529 68.422 371.21 68.2653 368.986 68.7608C365.984 69.4298 363.36 71.2414 361.67 73.8118L357.711 79.8349L353.539 86.1802C352.726 87.5517 351.85 88.8849 350.913 90.1754L350.783 90.3738L350.773 90.3674C349.983 91.4454 349.15 92.4932 348.277 93.5084L331.503 113.004ZM295.815 83.8422C298.877 82.7876 302.2 84.4923 303.13 87.5939L304.044 90.644C304.532 92.2711 304.536 94.0048 304.055 95.634L302.521 100.839C301.982 102.666 301.251 104.431 300.341 106.105L292.982 119.637L295.617 121.07L302.977 107.538C303.988 105.679 304.8 103.718 305.398 101.687L306.933 96.4825C307.578 94.295 307.573 91.9672 306.918 89.7827L306.004 86.7326C304.585 81.9982 299.511 79.396 294.838 81.0058C292.177 81.9225 290.124 84.0702 289.328 86.7699L286.702 95.6782L289.579 96.5267L292.206 87.6183C292.727 85.8497 294.072 84.4427 295.815 83.8422ZM82.0001 415L63.9291 435.816L64.5854 435.311L64.6541 435.258L64.7284 435.213L67.4018 433.609C72.354 430.638 77.566 428.123 82.9734 426.096L83.5001 427.5L83.0589 426.066C87.5428 424.687 92.2622 424.242 96.9249 424.76L99.1657 425.009L98.8344 427.991L96.5936 427.742C92.3538 427.271 88.0627 427.672 83.9841 428.921C78.7621 430.882 73.7286 433.312 68.9453 436.182L66.3462 437.741L54.032 447.216L3.00006 506L0.734637 504.033L51.3993 445.673L51.2949 445.537L51.5862 445.313L51.5276 445.279L59.8879 430.842L61.0947 428.062C63.3155 422.945 65.068 417.637 66.3307 412.204C67.0362 407.997 66.8737 403.69 65.8532 399.548L65.3138 397.359L68.2267 396.641L68.7661 398.831C69.8884 403.386 70.0638 408.123 69.2813 412.748L67.8023 412.498L69.2635 412.837C67.959 418.463 66.1459 423.959 63.8466 429.256L62.6054 432.116L62.5709 432.196L62.5275 432.271L61.5123 434.024L79.7346 413.033L82.0001 415ZM336.182 141.039C340.415 138.563 345.42 137.755 350.218 138.773L354.05 139.586C356.782 140.165 359.165 141.82 360.662 144.177C364.439 150.123 361.327 158.025 354.509 159.798L345.298 162.192L346.053 165.096L355.264 162.701C364.051 160.416 368.063 150.232 363.195 142.569C361.265 139.531 358.194 137.398 354.673 136.651L350.84 135.838C345.312 134.666 339.546 135.597 334.667 138.449L331.462 140.323C329.41 141.523 327.496 142.946 325.756 144.566L315.034 154.549L302.715 165.447L304.703 167.693L317.036 156.783L317.05 156.77L317.064 156.757L327.8 146.762C329.379 145.293 331.115 144.002 332.977 142.913L336.182 141.039ZM369 235C381.15 235 391 225.15 391 213C391 200.85 381.15 191 369 191C356.85 191 347 200.85 347 213C347 225.15 356.85 235 369 235ZM369 238C382.807 238 394 226.807 394 213C394 199.193 382.807 188 369 188C355.193 188 344 199.193 344 213C344 226.807 355.193 238 369 238ZM247 123C247 129.627 241.627 135 235 135C228.373 135 223 129.627 223 123C223 116.373 228.373 111 235 111C241.627 111 247 116.373 247 123ZM250 123C250 131.284 243.284 138 235 138C226.716 138 220 131.284 220 123C220 114.716 226.716 108 235 108C243.284 108 250 114.716 250 123ZM461 120C461 132.15 451.15 142 439 142C426.85 142 417 132.15 417 120C417 107.85 426.85 98 439 98C451.15 98 461 107.85 461 120ZM464 120C464 133.807 452.807 145 439 145C425.193 145 414 133.807 414 120C414 106.193 425.193 95 439 95C452.807 95 464 106.193 464 120Z" fill="#F4BFB5"/>
</svg>
