<svg width="746" height="285" viewBox="0 0 746 285" fill="none" xmlns="http://www.w3.org/2000/svg">
<g style="mix-blend-mode:darken">
<path fill-rule="evenodd" clip-rule="evenodd" d="M269.483 22.0998L259.937 12.5538C259.352 11.968 259.352 11.0183 259.937 10.4325L269.483 0.886562C270.069 0.300776 271.019 0.300776 271.605 0.886562C272.19 1.47235 272.19 2.4221 271.605 3.00788L264.619 9.99316H350V10H352.498C355.332 10 358.141 10.5409 360.773 11.5937L362.839 12.4202C366.704 13.9662 371.049 13.7632 374.754 11.8637L380.193 9.07436C385.193 6.51003 391.325 8.21905 394.278 13.0002C396.871 17.1983 402.668 17.9508 406.246 14.5539L414.256 6.95178C420.197 1.31308 430 5.52436 430 13.7151C430 20.1907 438.577 22.4823 441.807 16.8697L448.554 5.14537C452.453 -1.63105 462.656 -0.0234638 464.283 7.62374C464.826 10.1755 467.08 12 469.689 12H478.879L471.893 5.01472C471.308 4.42893 471.308 3.47919 471.893 2.8934C472.479 2.30761 473.429 2.30761 474.015 2.8934L483.561 12.4393C484.146 13.0251 484.146 13.9749 483.561 14.5607L474.015 24.1066C473.429 24.6924 472.479 24.6924 471.893 24.1066C471.308 23.5208 471.308 22.5711 471.893 21.9853L478.879 15H469.689C465.664 15 462.187 12.1851 461.349 8.24806C460.294 3.29153 453.681 2.24958 451.154 6.64171L444.407 18.3661C439.645 26.6408 427 23.2622 427 13.7151C427 8.15952 420.351 5.3031 416.321 9.12769L408.312 16.7298C403.352 21.4373 395.319 20.3944 391.725 14.5767C389.595 11.1266 385.17 9.8934 381.562 11.7438L376.123 14.5331C371.646 16.8286 366.396 17.0738 361.725 15.2056L359.659 14.3792C357.381 13.4681 354.951 13 352.498 13H348.5V12.9932H264.619L271.605 19.9784C272.19 20.5642 272.19 21.514 271.605 22.0998C271.019 22.6856 270.069 22.6856 269.483 22.0998ZM434.062 267.812C437.014 262.892 444.319 263.462 446.472 268.781C447.993 272.54 451.643 275 455.699 275H470.379L463.393 281.985C462.808 282.571 462.808 283.521 463.393 284.107C463.979 284.692 464.929 284.692 465.515 284.107L475.061 274.561C475.646 273.975 475.646 273.025 475.061 272.439L465.515 262.893C464.929 262.308 463.979 262.308 463.393 262.893C462.808 263.479 462.808 264.429 463.393 265.015L470.379 272H455.699C452.865 272 450.315 270.281 449.252 267.655C446.171 260.042 435.715 259.226 431.49 266.268L426.055 275.327C423.481 279.616 416.885 277.63 417.107 272.633C417.446 264.99 407.743 261.457 403.089 267.528L395.756 277.092C391.783 282.275 383.5 279.465 383.5 272.935C383.5 264.122 372.8 259.759 366.638 266.059L362.402 270.388C360.26 272.579 357.176 273.573 354.158 273.048L349.878 272.304C348.714 272.102 347.536 272 346.355 272H345.5V271.993H264.62L271.605 265.008C272.191 264.422 272.191 263.472 271.605 262.887C271.019 262.301 270.069 262.301 269.483 262.887L259.938 272.432C259.352 273.018 259.352 273.968 259.938 274.554L269.483 284.1C270.069 284.686 271.019 284.686 271.605 284.1C272.191 283.514 272.191 282.564 271.605 281.978L264.62 274.993H340V275H346.355C347.363 275 348.37 275.087 349.364 275.26L353.644 276.004C357.636 276.698 361.713 275.383 364.547 272.486L368.782 268.156C373.065 263.779 380.5 266.811 380.5 272.935C380.5 282.332 392.419 286.375 398.137 278.917L405.469 269.353C408.338 265.611 414.319 267.789 414.11 272.5C413.749 280.607 424.452 283.829 428.627 276.87L434.062 267.812ZM42.4702 267.001V253H79.5V250H42.4702V37.5H79.5V34.5H42.4702V18.999H39.4702V34.5H0.498047V37.5H39.4702V250H0.498047V253H39.4702V267.001H42.4702ZM723.937 69.0846L725.134 75.4946L731.6 76.3372L736.661 76.9967L732.179 79.438L726.453 82.557L727.65 88.967L728.586 93.9842L724.88 90.4758L720.144 85.9935L714.417 89.1125L709.935 91.5538L712.126 86.9442L714.926 81.055L710.19 76.5726L706.483 73.0642L711.544 73.7237L718.01 74.5663L720.809 68.677L723.001 64.0674L723.937 69.0846ZM724.747 78.4695L727.118 78.7785L725.018 79.9225L723.104 80.965L723.504 83.1076L723.943 85.4586L722.206 83.8146L720.623 82.3164L718.709 83.3589L716.608 84.5029L717.635 82.3429L718.571 80.3744L716.988 78.8761L715.251 77.2321L717.622 77.5411L719.784 77.8228L720.719 75.8542L721.746 73.6942L722.185 76.0452L722.585 78.1878L724.747 78.4695ZM669.118 77.9613L666.906 75.5791L663.432 71.8395L664.044 76.9066L664.434 80.1345L661.485 81.5028L656.855 83.6507L661.863 84.6344L665.053 85.261L665.443 88.4889L666.055 93.556L668.538 89.0968L670.12 86.2562L673.311 86.8829L678.319 87.8666L674.845 84.127L672.633 81.7448L674.214 78.9042L676.698 74.4451L672.068 76.593L669.118 77.9613ZM669.585 81.0521L668.404 81.6L667.518 80.6462L667.674 81.9386L666.493 82.4864L667.77 82.7373L667.926 84.0298L668.56 82.8924L669.837 83.1433L668.951 82.1895L669.585 81.0521ZM689.654 106.341L693.37 109.227L697.262 106.585L701.485 103.718L699.754 108.519L698.158 112.945L701.873 115.83L705.904 118.961L700.803 118.798L696.101 118.647L694.505 123.072L692.773 127.874L691.352 122.972L690.042 118.453L685.34 118.303L680.239 118.14L684.462 115.273L688.354 112.631L687.044 108.113L685.623 103.211L689.654 106.341ZM695.055 111.709L695.531 111.386L695.336 111.927L694.596 113.977L696.318 115.314L696.772 115.667L696.197 115.649L694.018 115.579L693.279 117.629L693.084 118.17L692.924 117.618L692.317 115.524L690.138 115.455L689.563 115.436L690.039 115.113L691.843 113.889L691.236 111.796L691.075 111.243L691.53 111.596L693.251 112.933L695.055 111.709ZM656.163 112.383L657.26 110.52L659.85 106.122L655.17 108.158L653.188 109.02L651.755 107.401L648.372 103.579L648.862 108.66L649.07 110.811L647.088 111.673L642.408 113.709L647.391 114.813L649.501 115.281L649.708 117.432L650.198 122.513L652.788 118.115L653.885 116.252L655.995 116.72L660.978 117.823L657.596 114.001L656.163 112.383ZM652.613 112.897L652.472 112.739L652.58 112.556L652.385 112.641L652.245 112.482L652.265 112.693L652.071 112.777L652.278 112.823L652.298 113.034L652.406 112.852L652.613 112.897ZM724.147 137.712L729.457 140.031L733.303 135.697L736.691 131.88L736.194 136.96L735.63 142.726L740.94 145.045L745.617 147.087L740.632 148.184L734.974 149.43L734.409 155.196L733.912 160.276L731.329 155.874L728.396 150.877L722.737 152.123L717.752 153.22L721.14 149.402L724.986 145.069L722.053 140.072L719.469 135.67L724.147 137.712ZM731.701 142.022L732.806 140.777L732.644 142.434L732.431 144.603L734.429 145.476L735.955 146.142L734.329 146.5L732.2 146.968L731.988 149.138L731.826 150.795L730.983 149.359L729.879 147.479L727.751 147.948L726.125 148.305L727.23 147.06L728.677 145.43L727.573 143.55L726.73 142.114L728.256 142.78L730.254 143.653L731.701 142.022ZM691.146 165.592L688.229 160.586L685.66 156.175L685.146 161.253L684.563 167.018L678.9 168.245L673.912 169.325L678.582 171.383L683.885 173.719L683.301 179.484L682.787 184.562L686.188 180.756L690.048 176.435L695.351 178.771L700.021 180.829L697.452 176.419L694.536 171.412L698.396 167.091L701.797 163.285L696.808 164.366L691.146 165.592ZM693.408 168.172L691.781 168.524L689.65 168.986L688.553 167.102L687.715 165.663L687.547 167.32L687.328 169.489L685.198 169.95L683.57 170.303L685.094 170.974L687.089 171.853L686.869 174.021L686.702 175.678L687.811 174.436L689.263 172.811L691.258 173.69L692.782 174.361L691.943 172.922L690.846 171.039L692.299 169.413L693.408 168.172ZM657.989 127.698L658.398 131.655L662.287 132.489L667.277 133.559L662.611 135.627L658.974 137.238L659.383 141.195L659.907 146.272L656.499 142.473L653.842 139.512L650.205 141.123L645.539 143.19L648.099 138.775L650.094 135.334L647.438 132.373L644.03 128.574L649.02 129.644L652.909 130.478L654.905 127.037L657.465 122.621L657.989 127.698ZM655.637 134.131L657.62 134.557L655.766 135.378L655.974 137.396L654.62 135.886L652.765 136.708L653.783 134.953L652.428 133.443L654.411 133.868L655.429 132.114L655.637 134.131Z" fill="#757DF8"/>
</g>
</svg>
